<?xml version="1.0" encoding="utf-8"?>
<!-- Generator: Adobe Illustrator 19.2.1, SVG Export Plug-In . SVG Version: 6.00 Build 0)  -->
<svg version="1.1" id="logo" xmlns="http://www.w3.org/2000/svg" xmlns:xlink="http://www.w3.org/1999/xlink" x="0px" y="0px"
	 viewBox="0 0 305 32" enable-background="new 0 0 305 32" xml:space="preserve">
<path fill="#244456" d="M57.6,18.4c0.1,2.7,2.4,4.1,4.3,4.1c1.7,0,3.1-0.8,3.8-2.3h1.6c-0.5,1.2-1.3,2.1-2.2,2.7
	c-0.9,0.6-2,0.9-3.1,0.9c-3.8,0-5.8-3-5.8-5.8c0-3.2,2.5-5.8,5.8-5.8c1.5,0,3,0.5,4,1.5c1.3,1.2,1.9,2.9,1.7,4.7H57.6z M66.1,17.2
	c-0.1-1.9-2-3.8-4.2-3.7c-2.4,0-4.1,1.7-4.3,3.7H66.1z"/>
<path fill="#244456" d="M80.5,23.5H79v-2.3c-0.9,1.6-2.5,2.6-4.5,2.6c-3.6,0-5.7-2.8-5.7-5.8c0-3.2,2.3-5.8,5.7-5.8
	c2.3,0,3.9,1.4,4.5,2.6v-2.3h1.5V23.5z M70.3,18c0,2,1.4,4.4,4.4,4.4c1.9,0,3.4-1.1,3.9-2.7c0.2-0.5,0.4-1.1,0.4-1.7
	c0-0.6-0.1-1.2-0.3-1.8c-0.6-1.5-2.1-2.6-4-2.6C72.1,13.6,70.3,15.6,70.3,18L70.3,18z"/>
<path fill="#244456" d="M94.2,8.4h1.5v4v1.9c0.7-1.4,2.4-2.1,3.9-2.1c1.7,0,2.9,0.5,3.6,1.5s1,2.3,1,3.8v5.9h-1.5v-5.8
	c0-1.2-0.2-2.2-0.8-2.9c-0.6-0.7-1.4-1.1-2.7-1.1c-1.2,0-2.1,0.4-2.7,1.1c-0.6,0.7-0.9,1.5-0.9,2.5v6.2h-1.5V8.4z"/>
<path fill="#244456" d="M117.1,19.8c-0.7,2.3-2.8,4-5.5,4c-3.7,0-5.9-2.8-5.9-5.8c0-3.2,2.5-5.8,5.8-5.8c2.5,0,4.8,1.5,5.6,4.1h-1.5
	c-0.7-1.9-2.4-2.7-4-2.7c-1.3,0-2.2,0.4-3.1,1.2c-0.7,0.7-1.2,1.9-1.2,3.2c0,2.6,2,4.4,4.3,4.4c2.1,0,3.5-1.3,4-2.6H117.1z"/>
<path fill="#244456" d="M130.1,23.5h-1.5v-2.3c-0.9,1.6-2.5,2.6-4.5,2.6c-3.6,0-5.7-2.8-5.7-5.8c0-3.2,2.3-5.8,5.7-5.8
	c2.3,0,3.9,1.4,4.5,2.6v-2.3h1.5V23.5z M119.9,18c0,2,1.4,4.4,4.4,4.4c1.9,0,3.4-1.1,3.9-2.7c0.2-0.5,0.4-1.1,0.4-1.7
	c0-0.6-0.1-1.2-0.3-1.8c-0.6-1.5-2.1-2.6-4-2.6C121.7,13.6,119.9,15.6,119.9,18L119.9,18z"/>
<path fill="#244456" d="M132.5,12.5h1.4v1.8c0.8-1.6,2.2-2.1,3.5-2.1v1.5h-0.1c-2.1,0-3.3,1.3-3.3,3.8v6h-1.5V12.5z"/>
<path fill="#244456" d="M139.7,18.4c0.1,2.7,2.4,4.1,4.3,4.1c1.7,0,3.1-0.8,3.8-2.3h1.6c-0.5,1.2-1.3,2.1-2.2,2.7
	c-0.9,0.6-2,0.9-3.1,0.9c-3.8,0-5.8-3-5.8-5.8c0-3.2,2.5-5.8,5.8-5.8c1.5,0,3,0.5,4,1.5c1.3,1.2,1.9,2.9,1.7,4.7H139.7z M148.2,17.2
	c-0.1-1.9-2-3.8-4.2-3.7c-2.4,0-4.1,1.7-4.3,3.7H148.2z"/>
<path fill="#244456" d="M158.7,8.4h1.5v15.1h-1.5V8.4z"/>
<path fill="#244456" d="M162.7,18c0-3.1,2.3-5.8,5.8-5.8c3.5,0,5.8,2.7,5.8,5.8c0,3.1-2.3,5.8-5.8,5.8C165,23.8,162.7,21.1,162.7,18
	L162.7,18z M164.2,18c0,2.5,1.9,4.4,4.3,4.4c2.4,0,4.3-1.9,4.3-4.4c0-2.5-1.9-4.4-4.3-4.4C166.1,13.6,164.2,15.5,164.2,18L164.2,18z
	"/>
<polygon fill="#244456" points="92.6,12.5 90.2,12.5 90.2,8.4 90.2,8.4 88.7,8.4 88.7,8.4 88.7,12.5 86.6,12.5 86.6,13.7 88.7,13.7 
	88.7,23.5 88.7,23.5 90.2,23.5 90.2,23.5 90.2,13.7 92.6,13.7 "/>
<polygon fill="#244456" points="52.7,8.4 52.7,15.3 45.4,15.3 45.4,8.4 43.9,8.4 43.9,23.4 45.4,23.4 45.4,16.5 52.7,16.5 
	52.7,23.4 54.2,23.4 54.2,8.4 "/>
<path fill="#244456" d="M83.5,8.4H85v15.1h-1.5V8.4z"/>
<polygon fill="#244456" points="173.6,8.4 173.6,9.6 177.4,9.6 177.4,23.5 178.9,23.5 178.9,23.2 178.9,9.6 182.7,9.6 182.7,8.4 "/>
<path fill="#244456" d="M204.6,17.8c-0.9,3.6-4,5.9-7.6,5.9c-4.7,0-7.9-3.8-7.9-7.8c0-3.8,3-7.8,7.9-7.8c4.7,0,7.2,3.6,7.7,6h-4
	c-0.4-1.1-1.6-2.6-3.6-2.6c-2.6,0-4,2.3-4,4.4c0,2.3,1.5,4.5,4.1,4.5c2.4,0,3.4-2,3.6-2.5H204.6z"/>
<path fill="#244456" d="M205.6,17.8c0-2.7,2-6,6.1-6c4.1,0,6.1,3.2,6.1,6c0,2.8-2,6-6.1,6C207.6,23.8,205.6,20.6,205.6,17.8
	L205.6,17.8z M209,17.8c0,1.6,1.2,2.8,2.7,2.8c1.5,0,2.7-1.2,2.7-2.8c0-1.6-1.2-2.8-2.7-2.8C210.3,15,209,16.2,209,17.8L209,17.8z"
	/>
<path fill="#244456" d="M219.3,12.2h3.2v1.2c0.4-0.5,1.1-1.6,3.1-1.6c3.8,0,4.2,3.1,4.2,4.6v7.1h-3.4v-6.2c0-1.2-0.3-2.3-1.8-2.3
	c-1.7,0-1.9,1.2-1.9,2.4v6.1h-3.4V12.2z"/>
<path fill="#244456" d="M236.7,15.4c0-0.2-0.1-0.9-1.1-0.9c-0.7,0-1,0.4-1,0.8c0,0.5,0.8,0.9,1.7,1.1c1.9,0.5,3.9,1.1,3.9,3.5
	c0,2.5-2.1,3.9-4.6,3.9c-1.7,0-4.3-0.8-4.6-3.7h3.4c0.1,1,1.1,1,1.3,1c0.6,0,1.2-0.3,1.2-0.9c0-0.8-0.8-0.9-3-1.7
	c-1.5-0.5-2.7-1.4-2.7-3c0-2.3,2-3.8,4.4-3.8c1.5,0,4.1,0.6,4.3,3.6H236.7z"/>
<path fill="#244456" d="M241.4,17.8c0-2.7,2-6,6.1-6c4.1,0,6.1,3.2,6.1,6c0,2.8-2,6-6.1,6C243.3,23.8,241.4,20.6,241.4,17.8
	L241.4,17.8z M244.7,17.8c0,1.6,1.2,2.8,2.7,2.8c1.5,0,2.7-1.2,2.7-2.8c0-1.6-1.2-2.8-2.7-2.8C246,15,244.7,16.2,244.7,17.8
	L244.7,17.8z"/>
<path fill="#244456" d="M255.1,12.2h3.2v1.3c0.3-0.6,0.9-1.6,2.9-1.6v3.4H261c-1.7,0-2.5,0.6-2.5,2.2v6.1h-3.4V12.2z"/>
<path fill="#244456" d="M263.9,14.7h-1.7v-2.6h1.7V8.4h3.4v3.8h1.6v2.6h-1.6v8.7h-3.4V14.7z"/>
<path fill="#244456" d="M270.3,8.4h3.4V11h-3.4V8.4z M270.3,12.2h3.4v11.3h-3.4V12.2z"/>
<path fill="#244456" d="M285.8,23.5h-3.2v-1.2c-0.4,0.5-1.1,1.6-3.1,1.6c-3.8,0-4.2-3.1-4.2-4.6v-7.1h3.4v6.2c0,1.2,0.3,2.3,1.8,2.3
	c1.7,0,2-1.2,2-2.4v-6.1h3.4V23.5z"/>
<path fill="#244456" d="M287.3,12.2h3.2v1.2c0,0,0.2-0.4,0.7-0.8c0.5-0.4,1.3-0.8,2.5-0.8c0.8,0,1.8,0.2,2.6,1.1
	c0.2,0.2,0.5,0.5,0.7,0.9c0.2-0.3,0.5-0.7,0.8-1c0.7-0.6,1.6-1,2.8-1c0.8,0,2.1,0.2,3,1.1c1.1,1.1,1.2,1.9,1.2,4.4v6.2h-3.4v-6
	c0-0.5,0-1.1-0.2-1.6c-0.2-0.5-0.6-0.9-1.5-0.9c-0.9,0-1.4,0.4-1.6,0.9c-0.2,0.5-0.2,1.1-0.2,1.4v6.2h-3.4v-6.1c0-0.3,0-0.9-0.2-1.4
	c-0.2-0.5-0.6-1-1.5-1c-1,0-1.4,0.4-1.7,1c-0.2,0.5-0.2,1.2-0.2,1.5v6h-3.4V12.2z"/>
<g>
	<g>
		<g>
			<linearGradient id="SVGID_1_" gradientUnits="userSpaceOnUse" x1="3.638" y1="25.917" x2="24.4499" y2="5.1051">
				<stop  offset="0" style="stop-color:#01579B"/>
				<stop  offset="1" style="stop-color:#00E5FF"/>
			</linearGradient>
			<path fill="url(#SVGID_1_)" d="M24,8c-0.6,0-1.1,0.1-1.7,0.2c3.6,2.2,6.4,5.4,8.1,9.3c0.3,0.7,1.4,0.5,1.4-0.2
				c0.1-0.8,0.1-1.7,0-2.5C31.3,10.9,28,8,24,8z"/>
			<linearGradient id="SVGID_2_" gradientUnits="userSpaceOnUse" x1="3.638" y1="25.917" x2="24.4499" y2="5.1051">
				<stop  offset="0" style="stop-color:#01579B"/>
				<stop  offset="1" style="stop-color:#00E5FF"/>
			</linearGradient>
			<path fill="url(#SVGID_2_)" d="M5,13c0.3,0.5,0.6,0.9,1,1.3c0.1-4.2,1.5-8.3,4-11.7c0.5-0.6-0.2-1.5-0.9-1.1
				C8.3,1.9,7.6,2.4,6.9,2.9C3.9,5.3,3,9.6,5,13z"/>
			<linearGradient id="SVGID_3_" gradientUnits="userSpaceOnUse" x1="3.638" y1="25.917" x2="24.4499" y2="5.1051">
				<stop  offset="0" style="stop-color:#01579B"/>
				<stop  offset="1" style="stop-color:#00E5FF"/>
			</linearGradient>
			<path fill="url(#SVGID_3_)" d="M18.9,27c0.3-0.5,0.5-1,0.7-1.5c-3.7,2-7.9,2.8-12.1,2.4c-0.8-0.1-1.2,0.9-0.5,1.4
				c0.7,0.5,1.4,0.9,2.2,1.3C12.7,31.8,16.9,30.4,18.9,27z"/>
		</g>
	</g>
	<g>
		<g>
			<linearGradient id="SVGID_4_" gradientUnits="userSpaceOnUse" x1="4.8553" y1="26.8355" x2="27.1467" y2="4.5441">
				<stop  offset="0" style="stop-color:#40C4FF"/>
				<stop  offset="1" style="stop-color:#84FFFF"/>
			</linearGradient>
			<path fill="url(#SVGID_4_)" d="M17.7,8.9c-0.4,0.7,0.5,1.4,1.2,0.9C20.3,8.7,22,8,24,8c4.3,0,7.8,3.4,8,7.6
				C31.8,10,28.8,5.2,24.4,2.4c-0.2-0.1-0.5-0.1-0.8,0C21.1,4,19,6.3,17.7,8.9z"/>
			<linearGradient id="SVGID_5_" gradientUnits="userSpaceOnUse" x1="4.8553" y1="26.8355" x2="27.1467" y2="4.5441">
				<stop  offset="0" style="stop-color:#40C4FF"/>
				<stop  offset="1" style="stop-color:#84FFFF"/>
			</linearGradient>
			<circle fill="url(#SVGID_5_)" cx="16.1" cy="3" r="3"/>
			<linearGradient id="SVGID_6_" gradientUnits="userSpaceOnUse" x1="4.8553" y1="26.8355" x2="27.1467" y2="4.5441">
				<stop  offset="0" style="stop-color:#40C4FF"/>
				<stop  offset="1" style="stop-color:#84FFFF"/>
			</linearGradient>
			<path fill="url(#SVGID_6_)" d="M9,18c0.8-0.1,1-1.2,0.2-1.5c-1.7-0.6-3.2-1.8-4.2-3.5c-2.1-3.7-1-8.4,2.6-10.7
				C2.9,5.3,0.2,10.3,0,15.5c0,0.3,0.1,0.6,0.4,0.7C3,17.6,6,18.2,9,18z"/>
			<linearGradient id="SVGID_7_" gradientUnits="userSpaceOnUse" x1="4.8553" y1="26.8355" x2="27.1467" y2="4.5441">
				<stop  offset="0" style="stop-color:#40C4FF"/>
				<stop  offset="1" style="stop-color:#84FFFF"/>
			</linearGradient>
			<circle fill="url(#SVGID_7_)" cx="4.7" cy="22.4" r="3"/>
			<linearGradient id="SVGID_8_" gradientUnits="userSpaceOnUse" x1="4.8553" y1="26.8355" x2="27.1467" y2="4.5441">
				<stop  offset="0" style="stop-color:#40C4FF"/>
				<stop  offset="1" style="stop-color:#84FFFF"/>
			</linearGradient>
			<path fill="url(#SVGID_8_)" d="M21.2,21c-0.5-0.7-1.5-0.2-1.4,0.6c0.3,1.8,0,3.7-1,5.4c-2.1,3.7-6.8,5-10.5,3.1
				c4.9,2.7,10.6,2.5,15.2,0c0.2-0.1,0.4-0.4,0.4-0.7C23.8,26.4,22.9,23.5,21.2,21z"/>
			<linearGradient id="SVGID_9_" gradientUnits="userSpaceOnUse" x1="4.8553" y1="26.8355" x2="27.1467" y2="4.5441">
				<stop  offset="0" style="stop-color:#40C4FF"/>
				<stop  offset="1" style="stop-color:#84FFFF"/>
			</linearGradient>
			<circle fill="url(#SVGID_9_)" cx="27.2" cy="22.6" r="3"/>
		</g>
	</g>
</g>
</svg>
